<?xml version="1.0" encoding="utf-8"?>
<!-- Generator: Adobe Illustrator 27.5.0, SVG Export Plug-In . SVG Version: 6.00 Build 0)  -->
<svg version="1.1" xmlns="http://www.w3.org/2000/svg" xmlns:xlink="http://www.w3.org/1999/xlink" x="0px" y="0px"
	 viewBox="0 0 3710 3710" style="enable-background:new 0 0 3710 3710;" xml:space="preserve">
<g id="Background">
	<g>
		<g>
			<rect style="fill:#FFFFFF;" width="3710" height="3710"/>
		</g>
	</g>
</g>
<g id="Illustration">
	<g>
		<path style="fill:#F4F7FA;" d="M1510.546,637.178c440.844-45.578,509.867-262.005,845.651-236.721
			c312.941,23.564,658.855,242.107,810.993,548.641c194.021,390.924-93.585,589.549-110.905,1621.985
			c-5.781,344.572,24.591,421.594-55.452,526.799c-111.734,146.859-319.558,192.14-1608.122,62.384
			c-695.585-70.044-814.943-101.356-887.24-214.878c-166.06-260.748,191.246-523.266,221.81-1171.434
			c31.884-676.18-325.601-1055.787-145.563-1219.955C733.58,415.523,981.003,691.926,1510.546,637.178z"/>
		<g>
			<path style="fill:#BFC8D6;" d="M1674.824,1648.208c48.889,24.821,110.311,2.03,137.186-50.907
				c26.878-52.936,9.033-115.973-39.855-140.794c-2.531-1.286-5.119-2.368-7.709-3.402c9.082-29.292,15.93-58.813,20.523-88.346
				c2.801-0.007,5.615-0.055,8.472-0.31c55.778-4.972,100.046-56.225,98.878-114.483c-1.167-58.256-47.332-101.453-103.11-96.48
				c-2.915,0.261-5.78,0.72-8.626,1.227c-5.827-28.869-13.809-57.071-23.88-84.366c2.566-1.501,5.119-3.052,7.613-4.8
				c47.719-33.431,62.977-99.418,34.076-147.384c-28.9-47.965-91.015-59.744-138.734-26.313c-2.448,1.714-4.745,3.566-7.021,5.443
				c-18.848-20.837-39.52-40.145-61.887-57.769c1.572-2.578,3.111-5.19,4.505-7.932c26.876-52.936,61.999-110.763,12.726-134.815
				c-113.98-55.643-162.891-8.011-189.771,44.926c-1.392,2.743-2.59,5.527-3.746,8.317c-27.426-7.657-55.213-12.953-83.157-15.875
				c0.175-2.943,0.311-5.891,0.251-8.877c-1.169-58.255,16.118-89.781-39.872-90.87c-122.092-2.373-163.284,50.621-162.116,108.873
				c0.061,3.045,0.315,6.022,0.617,8.979c-27.98,7.976-55.456,18.172-82.203,30.506c-1.271-2.6-2.591-5.182-4.1-7.69
				c-28.9-47.965-91.013-59.743-138.736-26.309c-47.722,33.435-62.977,99.42-34.077,147.383c1.479,2.459,3.102,4.756,4.749,7.024
				c-21.133,21.135-40.923,44.084-59.212,68.702c-2.365-1.483-4.764-2.932-7.297-4.219c-48.889-24.822-110.31-2.03-137.185,50.906
				c-26.877,52.936-9.032,115.973,39.855,140.796c2.532,1.286,5.119,2.366,7.713,3.401c-9.083,29.291-15.932,58.812-20.525,88.345
				c-2.803,0.008-5.614,0.054-8.468,0.306c-55.782,4.975-100.05,56.228-98.882,114.486c1.167,58.257,47.334,101.45,103.111,96.477
				c2.912-0.26,5.776-0.717,8.623-1.225c5.826,28.87,13.809,57.071,23.88,84.368c-2.564,1.5-5.119,3.052-7.611,4.799
				c-47.72,33.432-62.977,99.418-34.077,147.383c28.9,47.965,124.579,70.25,172.299,36.816c2.445-1.714-28.82-14.067-26.545-15.946
				c18.848,20.837,39.52,40.147,61.885,57.769c-1.569,2.579-3.112,5.191-4.503,7.932c-26.878,52.936-9.033,115.973,39.856,140.796
				c48.889,24.821,110.309,2.03,137.188-50.906c1.392-2.743,2.591-5.527,3.746-8.318c27.424,7.657,55.212,12.952,83.157,15.874
				c-0.175,2.943-0.311,5.892-0.251,8.879c1.167,58.253,47.332,101.448,103.11,96.477c55.776-4.973,100.047-56.229,98.878-114.483
				c-0.061-3.045-0.315-6.021-0.619-8.978c27.98-7.976,55.46-18.173,82.205-30.505c1.271,2.598,2.591,5.18,4.1,7.687
				c28.901,47.963,91.014,59.746,138.734,26.311c47.723-33.435,62.979-99.42,34.079-147.387c-1.481-2.456-3.103-4.752-4.749-7.02
				c21.133-21.135,40.923-44.084,59.21-68.703C1669.892,1645.471,1672.292,1646.921,1674.824,1648.208z M1065.375,1655.94
				c-177.507-90.122-242.295-318.992-144.708-511.194c97.585-192.202,320.588-274.953,498.094-184.829
				c177.505,90.123,242.293,318.992,144.71,511.194C1465.883,1663.314,1242.879,1746.064,1065.375,1655.94z"/>
			<path style="fill:#BFC8D6;" d="M1793.44,1364.451c55.778-4.974,100.046-56.229,98.878-114.485
				c-1.167-58.256-47.332-101.453-103.11-96.479c-2.915,0.26-5.78,0.721-8.626,1.225c-5.823-28.871-13.809-57.069-23.88-84.366
				c2.566-1.499,5.119-3.052,7.613-4.8c47.719-33.431,106.757-114.217,73.092-158.961c-63.901-84.927-130.03-48.166-177.749-14.735
				c-2.448,1.714-4.745,3.564-7.019,5.441c-18.849-20.837-39.521-40.144-61.889-57.767c1.572-2.578,3.111-5.19,4.505-7.932
				c14.628-28.811,15.918-60.575,6.258-87.579c-46.093,81.125-91.565,162.592-136.221,244.5
				c141.608,103.768,186.691,308.259,98.175,482.599c-75.005,147.733-224.108,230.689-369.694,220.294
				c-6.495,16.842-12.87,33.777-19.826,50.456c-18.872,45.266-40.312,89.598-61.778,133.873c13.501,2.546,27.061,4.549,40.659,5.972
				c-0.175,2.945-0.311,5.894-0.251,8.879c1.167,58.255,36.536,107.751,137.626,102.39c55.92-2.966,65.529-62.139,64.362-120.396
				c-0.061-3.043-0.315-6.02-0.617-8.977c27.979-7.976,55.459-18.173,82.203-30.506c1.271,2.599,2.591,5.18,4.101,7.687
				c28.901,47.966,129.157,68.346,176.88,34.911c47.721-33.435,24.832-108.018-4.068-155.985c-1.481-2.456-3.103-4.754-4.749-7.022
				c21.133-21.134,40.923-44.085,59.21-68.701c2.366,1.485,4.766,2.935,7.297,4.216c48.889,24.824,110.311,2.032,137.188-50.904
				c26.876-52.935,9.033-115.973-39.856-140.794c-2.533-1.287-5.12-2.367-7.711-3.401c9.082-29.292,15.93-58.814,20.523-88.344
				C1787.769,1364.752,1790.582,1364.704,1793.44,1364.451z"/>
			<path style="fill:#D8DEE8;" d="M1727.405,1654.186c48.889,24.822,110.311,2.03,137.189-50.906
				c26.875-52.938,9.032-115.973-39.858-140.796c-2.531-1.285-5.117-2.366-7.709-3.401c9.082-29.291,15.931-58.812,20.525-88.345
				c2.801-0.007,5.612-0.055,8.47-0.308c55.778-4.973,100.046-56.228,98.88-114.485c-1.169-58.257-47.332-101.452-103.11-96.48
				c-2.917,0.261-5.779,0.722-8.627,1.228c-5.825-28.87-13.808-57.071-23.881-84.366c2.567-1.502,5.119-3.054,7.613-4.799
				c47.719-33.433,62.977-99.42,34.077-147.385c-28.901-47.965-91.013-59.745-138.735-26.311c-2.445,1.712-4.747,3.564-7.019,5.441
				c-18.849-20.837-39.521-40.145-61.888-57.769c1.572-2.577,3.113-5.19,4.507-7.932c26.876-52.936,9.031-115.973-39.858-140.794
				c-48.889-24.823-110.309-2.032-137.187,50.906c-1.392,2.741-2.593,5.526-3.746,8.315c-27.426-7.656-55.213-12.952-83.156-15.874
				c0.173-2.943,0.308-5.892,0.25-8.877c-1.169-58.254-47.332-101.45-103.111-96.477c-55.778,4.97-100.046,56.228-98.879,114.481
				c0.061,3.045,0.316,6.022,0.617,8.979c-27.978,7.976-55.457,18.172-82.203,30.505c-1.271-2.597-2.591-5.182-4.1-7.69
				c-28.899-47.965-91.014-59.744-138.736-26.309c-47.721,33.435-62.975,99.42-34.077,147.385c1.481,2.456,3.103,4.755,4.75,7.022
				c-21.133,21.135-40.925,44.084-59.214,68.704c-2.364-1.485-4.763-2.935-7.296-4.22c-48.889-24.823-110.309-2.031-137.186,50.906
				c-26.878,52.937-9.033,115.973,39.856,140.795c2.533,1.286,5.118,2.366,7.711,3.4c-9.082,29.292-15.933,58.814-20.523,88.346
				c-2.803,0.009-5.616,0.054-8.47,0.307c-55.778,4.977-100.049,56.23-98.88,114.486c1.167,58.256,47.332,101.45,103.108,96.479
				c2.913-0.26,5.779-0.719,8.624-1.226c5.826,28.869,13.809,57.072,23.882,84.366c-2.567,1.501-5.119,3.052-7.613,4.8
				c-47.719,33.432-62.975,99.42-34.077,147.383c28.901,47.967,91.015,59.745,138.735,26.313c2.445-1.715,4.747-3.564,7.018-5.443
				c18.851,20.837,39.521,40.147,61.889,57.769c-1.573,2.579-3.113,5.191-4.503,7.934c-26.88,52.936-9.035,115.971,39.854,140.794
				c48.889,24.821,110.311,2.03,137.187-50.906c1.394-2.742,2.593-5.527,3.746-8.318c27.426,7.659,55.215,12.953,83.158,15.875
				c-0.174,2.943-0.311,5.891-0.251,8.878c1.169,58.253,47.332,101.45,103.11,96.477c55.777-4.971,100.047-56.228,98.878-114.482
				c-0.06-3.045-0.314-6.021-0.617-8.978c27.98-7.976,55.459-18.171,82.203-30.504c1.271,2.596,2.592,5.18,4.102,7.685
				c28.9,47.967,91.013,59.748,138.734,26.313c47.722-33.435,62.979-99.418,34.079-147.386c-1.481-2.454-3.103-4.752-4.751-7.021
				c21.132-21.133,40.923-44.084,59.212-68.702C1722.474,1651.45,1724.872,1652.9,1727.405,1654.186z M1117.958,1661.918
				c-177.506-90.122-242.293-318.99-144.708-511.194c97.586-192.202,320.588-274.952,498.094-184.829
				c177.505,90.122,242.293,318.992,144.71,511.194C1518.467,1669.293,1295.465,1752.041,1117.958,1661.918z"/>
		</g>
		<g>
			<g>
				
					<linearGradient id="SVGID_1_" gradientUnits="userSpaceOnUse" x1="730.2585" y1="-324.0972" x2="1286.8876" y2="1138.4932" gradientTransform="matrix(0.5307 0.8476 -0.8476 0.5307 2621.2456 1072.4882)">
					<stop  offset="0" style="stop-color:#FFC444"/>
					<stop  offset="0.5135" style="stop-color:#F9984D"/>
					<stop  offset="0.9964" style="stop-color:#F36F56"/>
				</linearGradient>
				<path style="fill:url(#SVGID_1_);" d="M2458.654,2293.805c-60.038,1.425-94.981,48.017-114.985,85.694
					c2.775,5.059,3.082,8.677,4.744,14.383c15.002,51.499,32.375,70.272,55.176,118.697c4.908,10.424,28.618,36.636,38.993,46.725
					l19.643,18.5c0,0,136.743-20.179,133.906-98.792c-2.837-78.612,124.603-114.252,189.789-141.454
					c40.029-16.704,52.985-37.166,66.708-45.665c145.267-89.966,214.171-68.764,243.438-127.038
					c32.309-64.33-42.414-108.582-10.964-180.419c35.513-81.118,154.635-79.155,171.087-163.429
					c2.821-14.448,5.326-29.37,1.221-48.573c-10.135-47.399-51.95-67.748-34.08-115.142c35.922-95.262,7.069-204.508-95.823-225.042
					c-101.549-20.266-202.639,121.155-219.45,350.717c-30.569,161.892-57.584,178.231-130.724,204.794
					c-51.229,18.608-202.451,35.117-213.983,129.58C2551.816,2211.805,2527.29,2292.179,2458.654,2293.805z"/>
				<g>
					<defs>
						<path id="SVGID_00000128485181552867357400000002390246175891622027_" d="M2321.642,2429.451l134.326,146.772
							c0,0,143-18.598,140.163-97.21c-2.837-78.613,124.602-114.253,189.789-141.455c176.867-73.805,54.024-259.13,272.46-373.061
							c58.097-30.302,180.349-67.526,197.808-143.489c19.89-86.544-55.841-102.766-32.858-163.715
							c35.921-95.262,7.068-204.508-95.823-225.042c-101.549-20.266-202.639,121.155-219.451,350.716
							c-30.569,161.894-57.584,178.231-130.723,204.795c-51.23,18.606-202.452,35.118-213.984,129.581
							s-36.059,174.835-104.694,176.463C2354.219,2296.283,2321.642,2429.451,2321.642,2429.451z"/>
					</defs>
					<clipPath id="SVGID_00000067219255554721259620000010801860728062627731_">
						<use xlink:href="#SVGID_00000128485181552867357400000002390246175891622027_"  style="overflow:visible;"/>
					</clipPath>
					<g style="opacity:0.5;clip-path:url(#SVGID_00000067219255554721259620000010801860728062627731_);">
						<path style="fill:#FCFDFE;" d="M2388.275,2489.157l2.3,3.204c17.808-12.534,35.598-25.412,52.876-38.273
							c127.923-95.239,241.549-199.87,337.72-310.994c81.489-94.159,151.615-194.284,208.432-297.593
							c45.692-83.081,83.063-168.664,111.075-254.372c19.69-60.252,34.59-119.942,44.278-177.414
							c1.69-10.015,2.859-20.396,3.989-30.435c1.505-13.375,3.062-27.207,5.867-40.279l-3.688-1.08
							c-2.844,13.252-4.412,27.176-5.928,40.642c-1.124,9.99-2.287,20.319-3.96,30.232c-9.658,57.291-24.511,116.803-44.147,176.884
							c-27.941,85.496-65.225,170.875-110.812,253.765c-56.7,103.097-126.687,203.022-208.019,296.999
							c-96.009,110.936-209.454,215.4-337.18,310.49C2423.825,2463.78,2406.06,2476.639,2388.275,2489.157z"/>
						<path style="fill:#FCFDFE;" d="M2911.821,1965.816l3.112,2.398c91.427-128.436,355.388-194.764,358.043-195.418l-1.144-3.731
							C3269.165,1769.723,3003.981,1836.352,2911.821,1965.816z"/>
						<path style="fill:#FCFDFE;" d="M2623.305,2299.877l2.843,2.728c72.756-79.106,42.895-294.889,42.585-297.059l-3.733,0.269
							C2665.308,2007.969,2694.925,2222.008,2623.305,2299.877z"/>
						<path style="fill:#FCFDFE;" d="M2577.928,2340.832l2.362,3.161c56.385-41.576,157.461-65.897,284.604-68.479
							c6.393-0.13,6.393-0.13,6.958-0.534l-2.325-3.188l1.163,1.594l-0.52-1.869c-0.421,0.058-2.835,0.108-5.633,0.163
							C2736.667,2274.278,2634.882,2298.835,2577.928,2340.832z"/>
						<path style="fill:#FCFDFE;" d="M2420.42,2465.79l3.102,2.407c45.243-62.979,11.676-180.324,11.333-181.5l-3.61,0.832
							C2431.584,2288.69,2464.626,2404.252,2420.42,2465.79z"/>
						<path style="fill:#FCFDFE;" d="M2390.914,2494.49c61.18-15.116,129.963-12.495,210.279,8.014l0.656-3.716
							c-80.933-20.665-150.306-23.29-212.081-8.027L2390.914,2494.49z"/>
						<path style="fill:#FCFDFE;" d="M3079.755,1639.82l3.226,2.225c46.693-74.595,113.62-140.63,135.612-162.329
							c5.324-5.253,7.191-7.109,7.722-7.878l-3.142-2.354c-0.413,0.582-3.457,3.584-7.311,7.386
							C3193.8,1498.638,3126.661,1564.884,3079.755,1639.82z"/>
						<path style="fill:#FCFDFE;" d="M3022.379,1773.901l3.658,1.207c20.552-81.542-66.816-234.892-70.545-241.38l-3.22,1.745
							C2953.177,1537.047,3042.547,1693.882,3022.379,1773.901z"/>
					</g>
				</g>
			</g>
			<g>
				
					<linearGradient id="SVGID_00000173868118353716334300000005960589700276963477_" gradientUnits="userSpaceOnUse" x1="6178.3999" y1="-635.3803" x2="6867.3296" y2="498.7748" gradientTransform="matrix(0.6167 0.7872 -0.7872 0.6167 -1325.1426 -3349.541)">
					<stop  offset="0" style="stop-color:#FF9085"/>
					<stop  offset="1" style="stop-color:#FB6FBB"/>
				</linearGradient>
				<path style="fill:url(#SVGID_00000173868118353716334300000005960589700276963477_);" d="M2377.709,2195.555
					c9.685,9.605-52.188,127.409,42.487,103.374c23.653-6.005,91.416-44.76,155.953,32.038
					c12.528,14.907,25.057,29.815,37.585,44.722c44.756-13.726,84.394-34.955,61.225-91.791
					c-35.981-88.263,84.555-182.574,143.231-195.434c72.622-15.918,240.756-56.507,187.23-193.711
					c-44.559-114.222-96.157-180.16,13.074-273.453c109.232-93.294,129.5-212.728,37.875-316.041
					c-96.422-108.722-24.394-312.585-146.104-369.229c-212.074-98.695-348.553,240.197-266.559,493.787
					c81.993,253.589-75.16,191.724-172.893,257.402c-8.727,6.611-21.748,17.533-34.668,33.342
					c-79.545,97.33-17.371,211.185-40.098,345.133C2365.053,2248.374,2361.393,2179.374,2377.709,2195.555z"/>
				<g>
					<defs>
						<path id="SVGID_00000052093634263237370140000017887838359138630528_" d="M2383.299,2140.737l196.375,247.313
							c44.875-11.418,121.164-40.664,95.284-104.149c-35.98-88.264,84.555-182.575,143.231-195.436
							c72.622-15.918,240.757-56.506,187.231-193.711c-44.559-114.222-96.158-180.158,13.074-273.452
							c109.232-93.294,129.5-212.728,37.874-316.041c-96.422-108.721-24.393-312.585-146.104-369.227
							c-212.074-98.696-348.552,240.196-266.558,493.785c81.993,253.589-75.158,191.724-172.893,257.403
							c-133.429,89.665,35.136,249.608,22.277,335.421C2483.009,2089.915,2423.302,2124.181,2383.299,2140.737z"/>
					</defs>
					<clipPath id="SVGID_00000057850882142597561960000014384955470850915228_">
						<use xlink:href="#SVGID_00000052093634263237370140000017887838359138630528_"  style="overflow:visible;"/>
					</clipPath>
					<g style="opacity:0.5;clip-path:url(#SVGID_00000057850882142597561960000014384955470850915228_);">
						<path style="fill:#FCFDFE;" d="M2512.917,2228.489l5.163,4.496c307.056-359.253,429.385-876.225,319.248-1349.17l-6.478,1.151
							C2940.523,1355.918,2818.698,1870.728,2512.917,2228.489z"/>
						<path style="fill:#FCFDFE;" d="M2662.694,2017.276l4.232,5.378c147.594-112.904,366.755-68.667,368.952-68.206l0.998-6.516
							C3034.651,1947.464,2812.615,1902.593,2662.694,2017.276z"/>
						<path style="fill:#FCFDFE;" d="M2567.509,2160.753l6.164,2.866c73.147-175.101-132.239-473.917-134.323-476.915l-5.393,3.583
							C2436.018,1693.253,2639.266,1988.982,2567.509,2160.753z"/>
						<path style="fill:#FCFDFE;" d="M2832.078,1581.758l5.928,3.372c69.975-132.747,296.115-186.542,298.39-187.07l-1.852-6.492
							C3132.239,1392.101,2903.345,1446.558,2832.078,1581.758z"/>
						<path style="fill:#FCFDFE;" d="M2870.382,1277.675l6.595-0.531c-24.125-174.784-210.314-331.653-212.197-333.218l-4.081,5.016
							C2662.56,950.486,2846.635,1105.614,2870.382,1277.675z"/>
					</g>
				</g>
			</g>
		</g>
		<g>
			<g>
				
					<linearGradient id="SVGID_00000040572360981196899640000001809317111750644865_" gradientUnits="userSpaceOnUse" x1="1822.9423" y1="2576.0371" x2="2388.2729" y2="3019.4341">
					<stop  offset="0.0036" style="stop-color:#E38DDD"/>
					<stop  offset="1" style="stop-color:#9571F6"/>
				</linearGradient>
				<path style="fill:url(#SVGID_00000040572360981196899640000001809317111750644865_);" d="M1562.565,2837.097v98.461l0.143,0.006
					c6.036,59.427,254.593,168.568,615.606,170.586c530.814,2.967,710.077-115.569,718.418-176.262h0.198v-90.726L1562.565,2837.097
					z"/>
				
					<linearGradient id="SVGID_00000151505417543331091290000012131763690286895530_" gradientUnits="userSpaceOnUse" x1="3340.0059" y1="2999.5134" x2="1690.3531" y2="2727.2847" gradientTransform="matrix(1 0.0219 0 1 0 -26.6952)">
					<stop  offset="0" style="stop-color:#311944"/>
					<stop  offset="1" style="stop-color:#893976"/>
				</linearGradient>
				<path style="fill:url(#SVGID_00000151505417543331091290000012131763690286895530_);" d="M2896.931,2839.528
					c0,61.205-306.275,109.534-677.974,107.973c-365.117-1.533-656.393-50.793-656.393-110.049s291.276-107.61,656.393-108.007
					C2590.656,2729.041,2896.931,2778.324,2896.931,2839.528z"/>
				
					<linearGradient id="SVGID_00000050641118256141674260000010747824956142723263_" gradientUnits="userSpaceOnUse" x1="2231.2498" y1="2902.2095" x2="2226.6514" y2="2667.6846" gradientTransform="matrix(1 0.0219 0 1 0 -26.6952)">
					<stop  offset="0.0036" style="stop-color:#E38DDD"/>
					<stop  offset="1" style="stop-color:#9571F6"/>
				</linearGradient>
				<path style="fill:url(#SVGID_00000050641118256141674260000010747824956142723263_);" d="M2891.761,2832.08
					c0,60.745-303.937,108.813-672.887,107.386c-362.517-1.403-651.786-50.221-651.786-109.062
					c0-58.84,289.269-106.927,651.786-107.412C2587.824,2722.499,2891.761,2771.335,2891.761,2832.08z"/>
				
					<linearGradient id="SVGID_00000067224263147664201720000003291661303327628984_" gradientUnits="userSpaceOnUse" x1="1826.5048" y1="2571.0916" x2="2388.6204" y2="3011.967">
					<stop  offset="0.0036" style="stop-color:#E38DDD"/>
					<stop  offset="1" style="stop-color:#9571F6"/>
				</linearGradient>
				<polygon style="fill:url(#SVGID_00000067224263147664201720000003291661303327628984_);" points="2896.931,2929.889 
					2896.931,2839.163 1562.565,2837.097 1562.565,2935.559 				"/>
				
					<linearGradient id="SVGID_00000063605232200559414430000000284702502295762320_" gradientUnits="userSpaceOnUse" x1="3340.0059" y1="2999.5134" x2="1690.3531" y2="2727.2847" gradientTransform="matrix(1 0.0219 0 1 0 -26.6952)">
					<stop  offset="0" style="stop-color:#311944"/>
					<stop  offset="1" style="stop-color:#893976"/>
				</linearGradient>
				<path style="fill:url(#SVGID_00000063605232200559414430000000284702502295762320_);" d="M2896.931,2839.528
					c0,61.205-306.275,109.534-677.974,107.973c-365.117-1.533-656.393-50.793-656.393-110.049s291.276-107.61,656.393-108.007
					C2590.656,2729.041,2896.931,2778.324,2896.931,2839.528z"/>
				
					<linearGradient id="SVGID_00000135688384948638637390000010557800797020098751_" gradientUnits="userSpaceOnUse" x1="2231.2498" y1="2902.2095" x2="2226.6514" y2="2667.6846" gradientTransform="matrix(1 0.0219 0 1 0 -26.6952)">
					<stop  offset="0.0036" style="stop-color:#E38DDD"/>
					<stop  offset="1" style="stop-color:#9571F6"/>
				</linearGradient>
				<path style="fill:url(#SVGID_00000135688384948638637390000010557800797020098751_);" d="M2891.761,2832.08
					c0,60.745-303.937,108.813-672.887,107.386c-362.517-1.403-651.786-50.221-651.786-109.062
					c0-58.84,289.269-106.927,651.786-107.412C2587.824,2722.499,2891.761,2771.335,2891.761,2832.08z"/>
			</g>
			<g>
				
					<linearGradient id="SVGID_00000151529699677054705340000009486178731612272019_" gradientUnits="userSpaceOnUse" x1="1823.0988" y1="2389.3042" x2="2389.0435" y2="2833.1829">
					<stop  offset="0.0036" style="stop-color:#E38DDD"/>
					<stop  offset="1" style="stop-color:#9571F6"/>
				</linearGradient>
				<path style="fill:url(#SVGID_00000151529699677054705340000009486178731612272019_);" d="M1562.565,2650.487v98.461l0.143,0.006
					c6.036,59.427,254.592,163.396,615.606,161.54c572.081-2.942,710.077-106.522,718.418-167.216h0.198v-90.725L1562.565,2650.487z
					"/>
				
					<linearGradient id="SVGID_00000040569703470948020090000001358285914364580739_" gradientUnits="userSpaceOnUse" x1="3340.0059" y1="2812.9026" x2="1690.3531" y2="2540.6738" gradientTransform="matrix(1 0.0219 0 1 0 -26.6952)">
					<stop  offset="0" style="stop-color:#311944"/>
					<stop  offset="1" style="stop-color:#893976"/>
				</linearGradient>
				<path style="fill:url(#SVGID_00000040569703470948020090000001358285914364580739_);" d="M2896.931,2652.918
					c0,61.205-306.275,109.534-677.974,107.972c-365.117-1.534-656.393-50.794-656.393-110.05
					c0-59.256,291.276-107.609,656.393-108.006C2590.656,2542.43,2896.931,2591.714,2896.931,2652.918z"/>
				
					<linearGradient id="SVGID_00000078030221655900496460000011522399974196131241_" gradientUnits="userSpaceOnUse" x1="2231.2498" y1="2715.5981" x2="2226.6514" y2="2481.074" gradientTransform="matrix(1 0.0219 0 1 0 -26.6952)">
					<stop  offset="0.0036" style="stop-color:#E38DDD"/>
					<stop  offset="1" style="stop-color:#9571F6"/>
				</linearGradient>
				<path style="fill:url(#SVGID_00000078030221655900496460000011522399974196131241_);" d="M2891.761,2645.469
					c0,60.745-303.937,108.813-672.887,107.386c-362.517-1.402-651.786-50.221-651.786-109.061
					c0-58.84,289.269-106.927,651.786-107.413C2587.824,2535.887,2891.761,2584.725,2891.761,2645.469z"/>
				
					<linearGradient id="SVGID_00000034793205107485920800000002653952604066306694_" gradientUnits="userSpaceOnUse" x1="1826.5049" y1="2384.4812" x2="2388.6201" y2="2825.3562">
					<stop  offset="0.0036" style="stop-color:#E38DDD"/>
					<stop  offset="1" style="stop-color:#9571F6"/>
				</linearGradient>
				<polygon style="fill:url(#SVGID_00000034793205107485920800000002653952604066306694_);" points="2896.931,2743.278 
					2896.931,2652.552 1562.565,2650.487 1562.565,2748.948 				"/>
				
					<linearGradient id="SVGID_00000036226344108925969770000013807087348637144752_" gradientUnits="userSpaceOnUse" x1="3340.0059" y1="2812.9026" x2="1690.3531" y2="2540.6738" gradientTransform="matrix(1 0.0219 0 1 0 -26.6952)">
					<stop  offset="0" style="stop-color:#311944"/>
					<stop  offset="1" style="stop-color:#893976"/>
				</linearGradient>
				<path style="fill:url(#SVGID_00000036226344108925969770000013807087348637144752_);" d="M2896.931,2652.918
					c0,61.205-306.275,109.534-677.974,107.972c-365.117-1.534-656.393-50.794-656.393-110.05
					c0-59.256,291.276-107.609,656.393-108.006C2590.656,2542.43,2896.931,2591.714,2896.931,2652.918z"/>
				
					<linearGradient id="SVGID_00000111156368120855593820000011198025966774114974_" gradientUnits="userSpaceOnUse" x1="2231.2498" y1="2715.5981" x2="2226.6514" y2="2481.074" gradientTransform="matrix(1 0.0219 0 1 0 -26.6952)">
					<stop  offset="0.0036" style="stop-color:#E38DDD"/>
					<stop  offset="1" style="stop-color:#9571F6"/>
				</linearGradient>
				<path style="fill:url(#SVGID_00000111156368120855593820000011198025966774114974_);" d="M2891.761,2645.469
					c0,60.745-303.937,108.813-672.887,107.386c-362.517-1.402-651.786-50.221-651.786-109.061
					c0-58.84,289.269-106.927,651.786-107.413C2587.824,2535.887,2891.761,2584.725,2891.761,2645.469z"/>
			</g>
			<g>
				
					<linearGradient id="SVGID_00000064332661861345673730000017699564404908209797_" gradientUnits="userSpaceOnUse" x1="1823.0992" y1="2202.2346" x2="2389.0437" y2="2646.113">
					<stop  offset="0.0036" style="stop-color:#E38DDD"/>
					<stop  offset="1" style="stop-color:#9571F6"/>
				</linearGradient>
				<path style="fill:url(#SVGID_00000064332661861345673730000017699564404908209797_);" d="M1562.565,2463.418v98.46l0.143,0.006
					c6.036,59.427,254.592,163.396,615.606,161.54c572.081-2.941,710.077-106.522,718.418-167.216h0.198v-90.726L1562.565,2463.418z
					"/>
				
					<linearGradient id="SVGID_00000101795566636309281920000000908652815492960403_" gradientUnits="userSpaceOnUse" x1="3340.0059" y1="2625.8328" x2="1690.3531" y2="2353.604" gradientTransform="matrix(1 0.0219 0 1 0 -26.6952)">
					<stop  offset="0" style="stop-color:#311944"/>
					<stop  offset="1" style="stop-color:#893976"/>
				</linearGradient>
				<path style="fill:url(#SVGID_00000101795566636309281920000000908652815492960403_);" d="M2896.931,2465.848
					c0,61.204-306.275,109.534-677.974,107.972c-365.117-1.533-656.393-50.793-656.393-110.049
					c0-59.256,291.276-107.609,656.393-108.006C2590.656,2355.361,2896.931,2404.644,2896.931,2465.848z"/>
				
					<linearGradient id="SVGID_00000071517615831886256100000015680589701681967261_" gradientUnits="userSpaceOnUse" x1="2231.2498" y1="2528.5288" x2="2226.6514" y2="2294.0046" gradientTransform="matrix(1 0.0219 0 1 0 -26.6952)">
					<stop  offset="0.0036" style="stop-color:#E38DDD"/>
					<stop  offset="1" style="stop-color:#9571F6"/>
				</linearGradient>
				<path style="fill:url(#SVGID_00000071517615831886256100000015680589701681967261_);" d="M2891.761,2458.4
					c0,60.745-303.937,108.813-672.887,107.386c-362.517-1.402-651.786-50.22-651.786-109.061
					c0-58.841,289.269-106.928,651.786-107.413C2587.824,2348.818,2891.761,2397.655,2891.761,2458.4z"/>
				
					<linearGradient id="SVGID_00000113324249098535227850000014935008464080673414_" gradientUnits="userSpaceOnUse" x1="1826.5054" y1="2197.4116" x2="2388.6204" y2="2638.2864">
					<stop  offset="0.0036" style="stop-color:#E38DDD"/>
					<stop  offset="1" style="stop-color:#9571F6"/>
				</linearGradient>
				<polygon style="fill:url(#SVGID_00000113324249098535227850000014935008464080673414_);" points="2896.931,2556.208 
					2896.931,2465.483 1562.565,2463.418 1562.565,2561.878 				"/>
				
					<linearGradient id="SVGID_00000069384251424638148340000004200733667500576399_" gradientUnits="userSpaceOnUse" x1="3340.0059" y1="2625.8328" x2="1690.3531" y2="2353.604" gradientTransform="matrix(1 0.0219 0 1 0 -26.6952)">
					<stop  offset="0" style="stop-color:#311944"/>
					<stop  offset="1" style="stop-color:#893976"/>
				</linearGradient>
				<path style="fill:url(#SVGID_00000069384251424638148340000004200733667500576399_);" d="M2896.931,2465.848
					c0,61.204-306.275,109.534-677.974,107.972c-365.117-1.533-656.393-50.793-656.393-110.049
					c0-59.256,291.276-107.609,656.393-108.006C2590.656,2355.361,2896.931,2404.644,2896.931,2465.848z"/>
				
					<linearGradient id="SVGID_00000040542420383348751440000004100461798034903693_" gradientUnits="userSpaceOnUse" x1="2231.2498" y1="2528.5288" x2="2226.6514" y2="2294.0046" gradientTransform="matrix(1 0.0219 0 1 0 -26.6952)">
					<stop  offset="0.0036" style="stop-color:#E38DDD"/>
					<stop  offset="1" style="stop-color:#9571F6"/>
				</linearGradient>
				<path style="fill:url(#SVGID_00000040542420383348751440000004100461798034903693_);" d="M2891.761,2458.4
					c0,60.745-303.937,108.813-672.887,107.386c-362.517-1.402-651.786-50.22-651.786-109.061
					c0-58.841,289.269-106.928,651.786-107.413C2587.824,2348.818,2891.761,2397.655,2891.761,2458.4z"/>
			</g>
			<g>
				
					<linearGradient id="SVGID_00000118378944269176475300000009878572253841044622_" gradientUnits="userSpaceOnUse" x1="1823.0986" y1="2015.1652" x2="2389.0435" y2="2459.0439">
					<stop  offset="0.0036" style="stop-color:#E38DDD"/>
					<stop  offset="1" style="stop-color:#9571F6"/>
				</linearGradient>
				<path style="fill:url(#SVGID_00000118378944269176475300000009878572253841044622_);" d="M1562.565,2276.348v98.461l0.143,0.006
					c6.036,59.427,254.592,163.395,615.606,161.539c572.081-2.941,710.077-106.521,718.418-167.215h0.198v-90.725L1562.565,2276.348
					z"/>
				
					<linearGradient id="SVGID_00000133524822455773416290000006247826306945735861_" gradientUnits="userSpaceOnUse" x1="3340.0059" y1="2438.7634" x2="1690.3531" y2="2166.5347" gradientTransform="matrix(1 0.0219 0 1 0 -26.6952)">
					<stop  offset="0" style="stop-color:#311944"/>
					<stop  offset="1" style="stop-color:#893976"/>
				</linearGradient>
				<path style="fill:url(#SVGID_00000133524822455773416290000006247826306945735861_);" d="M2896.931,2278.779
					c0,61.204-306.275,109.533-677.974,107.972c-365.117-1.533-656.393-50.793-656.393-110.05
					c0-59.257,291.276-107.609,656.393-108.007C2590.656,2168.292,2896.931,2217.574,2896.931,2278.779z"/>
				
					<linearGradient id="SVGID_00000078759827286371638580000012637335795739091593_" gradientUnits="userSpaceOnUse" x1="2231.2498" y1="2341.4592" x2="2226.6514" y2="2106.9351" gradientTransform="matrix(1 0.0219 0 1 0 -26.6952)">
					<stop  offset="0.0036" style="stop-color:#E38DDD"/>
					<stop  offset="1" style="stop-color:#9571F6"/>
				</linearGradient>
				<path style="fill:url(#SVGID_00000078759827286371638580000012637335795739091593_);" d="M2891.761,2271.33
					c0,60.745-303.937,108.814-672.887,107.386c-362.517-1.403-651.786-50.22-651.786-109.06
					c0-58.841,289.269-106.928,651.786-107.413C2587.824,2161.749,2891.761,2210.584,2891.761,2271.33z"/>
				
					<linearGradient id="SVGID_00000031208103030418622490000006643593869842771647_" gradientUnits="userSpaceOnUse" x1="1826.5048" y1="2010.342" x2="2388.6204" y2="2451.2173">
					<stop  offset="0.0036" style="stop-color:#E38DDD"/>
					<stop  offset="1" style="stop-color:#9571F6"/>
				</linearGradient>
				<polygon style="fill:url(#SVGID_00000031208103030418622490000006643593869842771647_);" points="2896.931,2369.139 
					2896.931,2278.414 1562.565,2276.348 1562.565,2374.809 				"/>
				
					<linearGradient id="SVGID_00000053521629080711861860000011728819084145173923_" gradientUnits="userSpaceOnUse" x1="3340.0059" y1="2438.7634" x2="1690.3531" y2="2166.5347" gradientTransform="matrix(1 0.0219 0 1 0 -26.6952)">
					<stop  offset="0" style="stop-color:#311944"/>
					<stop  offset="1" style="stop-color:#893976"/>
				</linearGradient>
				<path style="fill:url(#SVGID_00000053521629080711861860000011728819084145173923_);" d="M2896.931,2278.779
					c0,61.204-306.275,109.533-677.974,107.972c-365.117-1.533-656.393-50.793-656.393-110.05
					c0-59.257,291.276-107.609,656.393-108.007C2590.656,2168.292,2896.931,2217.574,2896.931,2278.779z"/>
				
					<linearGradient id="SVGID_00000157281787217436253760000016879925257079734146_" gradientUnits="userSpaceOnUse" x1="2231.2498" y1="2341.4592" x2="2226.6514" y2="2106.9351" gradientTransform="matrix(1 0.0219 0 1 0 -26.6952)">
					<stop  offset="0.0036" style="stop-color:#E38DDD"/>
					<stop  offset="1" style="stop-color:#9571F6"/>
				</linearGradient>
				<path style="fill:url(#SVGID_00000157281787217436253760000016879925257079734146_);" d="M2891.761,2271.33
					c0,60.745-303.937,108.814-672.887,107.386c-362.517-1.403-651.786-50.22-651.786-109.06
					c0-58.841,289.269-106.928,651.786-107.413C2587.824,2161.749,2891.761,2210.584,2891.761,2271.33z"/>
			</g>
			<g>
				
					<linearGradient id="SVGID_00000078755157450221030150000014589634423717678488_" gradientUnits="userSpaceOnUse" x1="1823.0989" y1="1828.0955" x2="2389.0435" y2="2271.9739">
					<stop  offset="0.0036" style="stop-color:#E38DDD"/>
					<stop  offset="1" style="stop-color:#9571F6"/>
				</linearGradient>
				<path style="fill:url(#SVGID_00000078755157450221030150000014589634423717678488_);" d="M1562.565,2089.278v98.46l0.143,0.007
					c6.036,59.427,254.592,163.396,615.606,161.539c572.081-2.941,710.077-106.522,718.418-167.215h0.198v-90.726L1562.565,2089.278
					z"/>
				
					<linearGradient id="SVGID_00000165913698057141482570000008199263990994208936_" gradientUnits="userSpaceOnUse" x1="3340.0059" y1="2251.6934" x2="1690.3531" y2="1979.4647" gradientTransform="matrix(1 0.0219 0 1 0 -26.6952)">
					<stop  offset="0" style="stop-color:#311944"/>
					<stop  offset="1" style="stop-color:#893976"/>
				</linearGradient>
				<path style="fill:url(#SVGID_00000165913698057141482570000008199263990994208936_);" d="M2896.931,2091.708
					c0,61.205-306.275,109.534-677.974,107.973c-365.117-1.534-656.393-50.794-656.393-110.049
					c0-59.257,291.276-107.609,656.393-108.007C2590.656,1981.221,2896.931,2030.505,2896.931,2091.708z"/>
				
					<linearGradient id="SVGID_00000116202030677740005380000003765842986633534385_" gradientUnits="userSpaceOnUse" x1="2231.2498" y1="2154.3894" x2="2226.6514" y2="1919.8652" gradientTransform="matrix(1 0.0219 0 1 0 -26.6952)">
					<stop  offset="0.0036" style="stop-color:#E38DDD"/>
					<stop  offset="1" style="stop-color:#9571F6"/>
				</linearGradient>
				<path style="fill:url(#SVGID_00000116202030677740005380000003765842986633534385_);" d="M2891.761,2084.26
					c0,60.745-303.937,108.813-672.887,107.386c-362.517-1.402-651.786-50.22-651.786-109.062
					c0-58.839,289.269-106.926,651.786-107.412C2587.824,1974.679,2891.761,2023.516,2891.761,2084.26z"/>
				
					<linearGradient id="SVGID_00000009575914103217199720000001003512305950767530_" gradientUnits="userSpaceOnUse" x1="1826.5052" y1="1823.272" x2="2388.6206" y2="2264.147">
					<stop  offset="0.0036" style="stop-color:#E38DDD"/>
					<stop  offset="1" style="stop-color:#9571F6"/>
				</linearGradient>
				<polygon style="fill:url(#SVGID_00000009575914103217199720000001003512305950767530_);" points="2896.931,2182.069 
					2896.931,2091.343 1562.565,2089.278 1562.565,2187.738 				"/>
				
					<linearGradient id="SVGID_00000076578616918290758570000014713437626216139417_" gradientUnits="userSpaceOnUse" x1="3340.0059" y1="2251.6934" x2="1690.3531" y2="1979.4647" gradientTransform="matrix(1 0.0219 0 1 0 -26.6952)">
					<stop  offset="0" style="stop-color:#311944"/>
					<stop  offset="1" style="stop-color:#893976"/>
				</linearGradient>
				<path style="fill:url(#SVGID_00000076578616918290758570000014713437626216139417_);" d="M2896.931,2091.708
					c0,61.205-306.275,109.534-677.974,107.973c-365.117-1.534-656.393-50.794-656.393-110.049
					c0-59.257,291.276-107.609,656.393-108.007C2590.656,1981.221,2896.931,2030.505,2896.931,2091.708z"/>
				
					<linearGradient id="SVGID_00000183946987126709820590000005165759354185688746_" gradientUnits="userSpaceOnUse" x1="2231.2498" y1="2154.3894" x2="2226.6514" y2="1919.8652" gradientTransform="matrix(1 0.0219 0 1 0 -26.6952)">
					<stop  offset="0.0036" style="stop-color:#E38DDD"/>
					<stop  offset="1" style="stop-color:#9571F6"/>
				</linearGradient>
				<path style="fill:url(#SVGID_00000183946987126709820590000005165759354185688746_);" d="M2891.761,2084.26
					c0,60.745-303.937,108.813-672.887,107.386c-362.517-1.402-651.786-50.22-651.786-109.062
					c0-58.839,289.269-106.926,651.786-107.412C2587.824,1974.679,2891.761,2023.516,2891.761,2084.26z"/>
			</g>
			<g>
				
					<linearGradient id="SVGID_00000173854936147654235070000017817177540103845298_" gradientUnits="userSpaceOnUse" x1="1823.0991" y1="1641.0256" x2="2389.0437" y2="2084.9041">
					<stop  offset="0.0036" style="stop-color:#E38DDD"/>
					<stop  offset="1" style="stop-color:#9571F6"/>
				</linearGradient>
				<path style="fill:url(#SVGID_00000173854936147654235070000017817177540103845298_);" d="M1562.565,1902.209v98.46l0.143,0.006
					c6.036,59.427,254.592,163.396,615.606,161.539c572.081-2.941,710.077-106.521,718.418-167.215h0.198v-90.726L1562.565,1902.209
					z"/>
				
					<linearGradient id="SVGID_00000132807440700245262050000003885303569446161051_" gradientUnits="userSpaceOnUse" x1="3340.0056" y1="2064.6238" x2="1690.3531" y2="1792.395" gradientTransform="matrix(1 0.0219 0 1 0 -26.6952)">
					<stop  offset="0" style="stop-color:#311944"/>
					<stop  offset="1" style="stop-color:#893976"/>
				</linearGradient>
				<path style="fill:url(#SVGID_00000132807440700245262050000003885303569446161051_);" d="M2896.931,1904.639
					c0,61.205-306.275,109.535-677.974,107.973c-365.117-1.533-656.393-50.794-656.393-110.049
					c0-59.257,291.276-107.61,656.393-108.007C2590.656,1794.151,2896.931,1843.435,2896.931,1904.639z"/>
				
					<linearGradient id="SVGID_00000054959627604928464080000009237131537828667817_" gradientUnits="userSpaceOnUse" x1="2231.2498" y1="1967.3201" x2="2226.6514" y2="1732.7952" gradientTransform="matrix(1 0.0219 0 1 0 -26.6952)">
					<stop  offset="0.0036" style="stop-color:#E38DDD"/>
					<stop  offset="1" style="stop-color:#9571F6"/>
				</linearGradient>
				<path style="fill:url(#SVGID_00000054959627604928464080000009237131537828667817_);" d="M2891.761,1897.191
					c0,60.745-303.937,108.813-672.887,107.386c-362.517-1.402-651.786-50.221-651.786-109.061
					c0-58.84,289.269-106.927,651.786-107.413C2587.824,1787.609,2891.761,1836.446,2891.761,1897.191z"/>
				
					<linearGradient id="SVGID_00000132046086910077992190000012340550606378717089_" gradientUnits="userSpaceOnUse" x1="1826.5052" y1="1636.2024" x2="2388.6206" y2="2077.0776">
					<stop  offset="0.0036" style="stop-color:#E38DDD"/>
					<stop  offset="1" style="stop-color:#9571F6"/>
				</linearGradient>
				<polygon style="fill:url(#SVGID_00000132046086910077992190000012340550606378717089_);" points="2896.931,1995 
					2896.931,1904.274 1562.565,1902.209 1562.565,2000.669 				"/>
				
					<linearGradient id="SVGID_00000125567049761197738040000011536943258159604367_" gradientUnits="userSpaceOnUse" x1="3340.0056" y1="2064.6238" x2="1690.3531" y2="1792.395" gradientTransform="matrix(1 0.0219 0 1 0 -26.6952)">
					<stop  offset="0" style="stop-color:#311944"/>
					<stop  offset="1" style="stop-color:#893976"/>
				</linearGradient>
				<path style="fill:url(#SVGID_00000125567049761197738040000011536943258159604367_);" d="M2896.931,1904.639
					c0,61.205-306.275,109.535-677.974,107.973c-365.117-1.533-656.393-50.794-656.393-110.049
					c0-59.257,291.276-107.61,656.393-108.007C2590.656,1794.151,2896.931,1843.435,2896.931,1904.639z"/>
				
					<linearGradient id="SVGID_00000026862290186984804460000011144598402754704796_" gradientUnits="userSpaceOnUse" x1="2231.2498" y1="1967.3201" x2="2226.6514" y2="1732.7952" gradientTransform="matrix(1 0.0219 0 1 0 -26.6952)">
					<stop  offset="0.0036" style="stop-color:#E38DDD"/>
					<stop  offset="1" style="stop-color:#9571F6"/>
				</linearGradient>
				<path style="fill:url(#SVGID_00000026862290186984804460000011144598402754704796_);" d="M2891.761,1897.191
					c0,60.745-303.937,108.813-672.887,107.386c-362.517-1.402-651.786-50.221-651.786-109.061
					c0-58.84,289.269-106.927,651.786-107.413C2587.824,1787.609,2891.761,1836.446,2891.761,1897.191z"/>
			</g>
			<g>
				
					<linearGradient id="SVGID_00000114781871434208668910000008812522864280705166_" gradientUnits="userSpaceOnUse" x1="1823.0989" y1="1453.9562" x2="2389.0437" y2="1897.8348">
					<stop  offset="0.0036" style="stop-color:#E38DDD"/>
					<stop  offset="1" style="stop-color:#9571F6"/>
				</linearGradient>
				<path style="fill:url(#SVGID_00000114781871434208668910000008812522864280705166_);" d="M1562.565,1715.139v98.46l0.143,0.007
					c6.036,59.426,254.592,163.395,615.606,161.539c572.081-2.941,710.077-106.521,718.418-167.215h0.198v-90.725L1562.565,1715.139
					z"/>
				
					<linearGradient id="SVGID_00000112592912682646339540000011840524494864042163_" gradientUnits="userSpaceOnUse" x1="3340.0059" y1="1877.5543" x2="1690.3531" y2="1605.3256" gradientTransform="matrix(1 0.0219 0 1 0 -26.6952)">
					<stop  offset="0" style="stop-color:#311944"/>
					<stop  offset="1" style="stop-color:#893976"/>
				</linearGradient>
				<path style="fill:url(#SVGID_00000112592912682646339540000011840524494864042163_);" d="M2896.931,1717.57
					c0,61.204-306.275,109.534-677.974,107.972c-365.117-1.533-656.393-50.793-656.393-110.049
					c0-59.256,291.276-107.609,656.393-108.006C2590.656,1607.082,2896.931,1656.365,2896.931,1717.57z"/>
				
					<linearGradient id="SVGID_00000098201866655789123800000016000396712641607316_" gradientUnits="userSpaceOnUse" x1="2231.2498" y1="1780.2505" x2="2226.6514" y2="1545.7263" gradientTransform="matrix(1 0.0219 0 1 0 -26.6952)">
					<stop  offset="0.0036" style="stop-color:#E38DDD"/>
					<stop  offset="1" style="stop-color:#9571F6"/>
				</linearGradient>
				<path style="fill:url(#SVGID_00000098201866655789123800000016000396712641607316_);" d="M2891.761,1710.121
					c0,60.745-303.937,108.813-672.887,107.386c-362.517-1.403-651.786-50.221-651.786-109.062
					c0-58.84,289.269-106.927,651.786-107.411C2587.824,1600.54,2891.761,1649.376,2891.761,1710.121z"/>
				
					<linearGradient id="SVGID_00000106854398401176349750000002934139362860580748_" gradientUnits="userSpaceOnUse" x1="1826.505" y1="1449.1329" x2="2388.6204" y2="1890.0081">
					<stop  offset="0.0036" style="stop-color:#E38DDD"/>
					<stop  offset="1" style="stop-color:#9571F6"/>
				</linearGradient>
				<polygon style="fill:url(#SVGID_00000106854398401176349750000002934139362860580748_);" points="2896.931,1807.93 
					2896.931,1717.205 1562.565,1715.139 1562.565,1813.599 				"/>
				
					<linearGradient id="SVGID_00000106108974745134550460000012761943742832650133_" gradientUnits="userSpaceOnUse" x1="3340.0059" y1="1877.5543" x2="1690.3531" y2="1605.3256" gradientTransform="matrix(1 0.0219 0 1 0 -26.6952)">
					<stop  offset="0" style="stop-color:#311944"/>
					<stop  offset="1" style="stop-color:#893976"/>
				</linearGradient>
				<path style="fill:url(#SVGID_00000106108974745134550460000012761943742832650133_);" d="M2896.931,1717.57
					c0,61.204-306.275,109.534-677.974,107.972c-365.117-1.533-656.393-50.793-656.393-110.049
					c0-59.256,291.276-107.609,656.393-108.006C2590.656,1607.082,2896.931,1656.365,2896.931,1717.57z"/>
				
					<linearGradient id="SVGID_00000152979880962128780390000004190953452789945243_" gradientUnits="userSpaceOnUse" x1="2231.2498" y1="1780.2505" x2="2226.6514" y2="1545.7263" gradientTransform="matrix(1 0.0219 0 1 0 -26.6952)">
					<stop  offset="0.0036" style="stop-color:#E38DDD"/>
					<stop  offset="1" style="stop-color:#9571F6"/>
				</linearGradient>
				<path style="fill:url(#SVGID_00000152979880962128780390000004190953452789945243_);" d="M2891.761,1710.121
					c0,60.745-303.937,108.813-672.887,107.386c-362.517-1.403-651.786-50.221-651.786-109.062
					c0-58.84,289.269-106.927,651.786-107.411C2587.824,1600.54,2891.761,1649.376,2891.761,1710.121z"/>
			</g>
		</g>
		<path style="opacity:0.62;fill:#FFFFFF;" d="M3082.149,495.031c0-29.758-381.633-53.883-852.401-53.883
			c-470.768,0-852.401,24.125-852.401,53.883c0,1.15,0.638,2.29,1.76,3.422l474.672,1208.245
			c0,29.759,168.328,53.883,375.969,53.883c207.642,0,375.97-24.124,375.97-53.883l474.671-1208.245
			C3081.511,497.321,3082.149,496.181,3082.149,495.031z"/>
		<g>
			
				<linearGradient id="SVGID_00000134214455080889593280000011901481852432849805_" gradientUnits="userSpaceOnUse" x1="2823.4111" y1="428.9265" x2="2533.1606" y2="707.9052">
				<stop  offset="0" style="stop-color:#311944"/>
				<stop  offset="1" style="stop-color:#893976"/>
			</linearGradient>
			<path style="fill:url(#SVGID_00000134214455080889593280000011901481852432849805_);" d="M2244.271,1733.407
				c-25.604,0.74-50.578-5.712-72.211-18.676c-65.907-39.508-163.293-104.754-250.909-190.161
				c-111.175-108.378-175.051-218.544-189.027-326.723l-0.219-1.695l-2.712-461.597c0-91.225,59.502-165.276,171.214-213.935
				c92.297-40.201,214.629-60.121,343.864-56.38c127.731,3.697,245.925,30.052,333.408,73.966
				c103.992,52.203,158.555,125.564,158.555,212.541l-2.474,441.059l-0.2,1.622c-12.772,103.592-71.543,210.67-175.419,318.952
				c-83.319,86.847-177.47,155.674-242.131,198.318C2294.62,1724.808,2269.818,1732.668,2244.271,1733.407z"/>
			
				<linearGradient id="SVGID_00000065034009331922279240000012070198915714694837_" gradientUnits="userSpaceOnUse" x1="2424.5925" y1="705.5649" x2="2223.5774" y2="1026.7275">
				<stop  offset="0" style="stop-color:#311944"/>
				<stop  offset="1" style="stop-color:#893976"/>
			</linearGradient>
			<path style="fill:url(#SVGID_00000065034009331922279240000012070198915714694837_);" d="M2269.621,1733.407
				c-25.266,0.74-49.911-5.712-71.258-18.676c-65.037-39.508-161.136-104.754-247.593-190.161
				c-109.706-108.378-172.739-218.544-186.529-326.723l-0.217-1.695l-2.676-461.597c0-91.225,58.715-165.276,168.951-213.935
				c91.078-40.201,211.793-60.121,339.322-56.38c126.043,3.697,242.675,30.052,329.001,73.966
				c102.619,52.203,156.462,125.564,156.462,212.541l-2.441,441.059l-0.198,1.622c-12.602,103.592-70.597,210.67-173.101,318.952
				c-82.218,86.847-175.124,155.674-238.931,198.318C2319.303,1724.808,2294.828,1732.668,2269.621,1733.407z"/>
			
				<linearGradient id="SVGID_00000008146455149788159440000015545489923931712913_" gradientUnits="userSpaceOnUse" x1="2425.9536" y1="666.0188" x2="1691.2101" y2="2043.0834">
				<stop  offset="0" style="stop-color:#893976"/>
				<stop  offset="1" style="stop-color:#311944"/>
			</linearGradient>
			<path style="fill:url(#SVGID_00000008146455149788159440000015545489923931712913_);" d="M1791.825,734.887l2.694,459.265
				c30.232,234.329,305.621,424.048,425.561,496.129c34.36,20.648,78.289,19.424,112.405-3.025
				c117.438-77.276,377.744-271.821,405.556-497.118l2.471-439.843C2740.512,423.967,1791.825,394.134,1791.825,734.887z"/>
			
				<linearGradient id="SVGID_00000021818755207096341170000000850205008386950301_" gradientUnits="userSpaceOnUse" x1="2290.5981" y1="951.3966" x2="1688.4465" y2="1752.9355">
				<stop  offset="0" style="stop-color:#311944"/>
				<stop  offset="1" style="stop-color:#893976"/>
			</linearGradient>
			<path style="fill:url(#SVGID_00000021818755207096341170000000850205008386950301_);" d="M2276.426,1619.489
				c-2.198,0.051-5.525-0.314-8.887-2.353c-49.385-29.906-145.117-92.547-228.401-174.352
				c-89.958-88.365-141.841-174.278-153.738-254.968l-2.639-451.66c0.109-43.336,34.415-80.426,101.66-110.103
				c75.068-33.132,181.675-50.516,292.006-47.896c109.232,2.594,212.728,24.582,284.429,60.162
				c63.423,31.47,95.488,68.571,95.591,110.409l-2.459,436.023c-11.104,78.082-59.8,162.258-145.298,250.744
				c-80.391,83.198-174.298,149.151-223.381,181.224C2281.949,1618.913,2278.625,1619.437,2276.426,1619.489z"/>
			
				<linearGradient id="SVGID_00000158016766387478796540000017446527888944615593_" gradientUnits="userSpaceOnUse" x1="2393.8623" y1="1691.0186" x2="2170.4795" y2="473.5771">
				<stop  offset="0" style="stop-color:#FFC444"/>
				<stop  offset="0.5135" style="stop-color:#F9984D"/>
				<stop  offset="0.9964" style="stop-color:#F36F56"/>
			</linearGradient>
			<path style="fill:url(#SVGID_00000158016766387478796540000017446527888944615593_);" d="M2265.157,1588.617
				c-49.874-30.718-138.56-90.032-215.937-166.181c-84.54-83.201-133.463-163.04-144.964-236.915l-2.619-449.037
				c0.078-30.985,28.56-59.408,84.438-84.147c71.112-31.488,172.998-48.08,279.079-45.699
				c105.064,2.359,204.095,23.11,272.149,56.782c52.877,26.161,79.627,54.7,79.7,84.919l-2.454,434.419
				c-10.79,71.676-56.936,150.064-137.631,233.427C2401.999,1493.582,2314.804,1555.818,2265.157,1588.617z"/>
			<g>
				<path style="fill:#FFFFFF;" d="M2443.61,1000.706l-335.843,2.987c-25.817,0.23-46.851,20.356-46.851,44.939v215.178
					c0,24.439,20.955,43.382,46.679,42.329l334.658-13.703c23.804-0.974,43.107-20.68,43.229-44.03l1.063-205.559
					C2486.667,1019.367,2467.495,1000.494,2443.61,1000.706z"/>
				<path style="fill:#FFFFFF;" d="M2438.893,979.363c-10.086,0.066-18.242-7.947-18.199-17.9l0.205-46.873
					c0.205-47.077-38.714-85.805-87.219-86.287l-109.62-1.088c-50.2-0.499-91.475,38.646-91.517,87.211l-0.042,48.354
					c-0.009,10.267-8.75,18.646-19.546,18.717c-10.821,0.07-19.607-8.227-19.603-18.538l0.019-48.555
					c0.027-69.41,59.139-125.146,130.763-124.151l109.668,1.525c68.896,0.957,123.93,56.098,123.609,122.832l-0.225,46.686
					C2457.136,971.209,2448.956,979.297,2438.893,979.363z"/>
				
					<linearGradient id="SVGID_00000100355995500860021500000001319312045364087451_" gradientUnits="userSpaceOnUse" x1="2234.7627" y1="1164.0364" x2="2321.6421" y2="1164.0364">
					<stop  offset="0" style="stop-color:#311944"/>
					<stop  offset="1" style="stop-color:#893976"/>
				</linearGradient>
				<path style="fill:url(#SVGID_00000100355995500860021500000001319312045364087451_);" d="M2321.642,1124.097
					c0.075-23.764-20.322-42.552-45.228-40.976c-22.052,1.393-40.343,19.201-41.581,40.572
					c-0.959,16.576,8.006,30.937,21.655,38.226c5.802,3.099,8.672,9.595,7.527,16.008l-9.706,54.357
					c-1.235,6.919,4.249,13.006,11.479,12.753l24.57-0.863c7.182-0.251,12.646-6.688,11.46-13.489l-9.392-53.841
					c-1.122-6.429,2.191-12.802,8.014-16.305C2313.098,1152.925,2321.593,1139.374,2321.642,1124.097z"/>
			</g>
		</g>
		<g>
			<path style="opacity:0.5;fill:#FFFFFF;" d="M1493.798,460.645c75.625,216.439,409.616,1028.203,499.302,1287.921
				c54.626,6.35,121.917,10.548,195.606,11.694L1964.59,446.405C1783.422,447.946,1620.302,453.084,1493.798,460.645z"/>
			<path style="opacity:0.5;fill:#FFFFFF;" d="M2687.532,459.093c-32.882,219.495-183.072,1037.632-223.028,1289.691
				c42.687-4.897,77.754-11.099,102.268-18.186c66.884-253.128,264.793-1033.223,324.989-1262.102
				C2831.705,464.758,2762.933,461.58,2687.532,459.093z"/>
		</g>
		<g>
			<g>
				
					<linearGradient id="SVGID_00000020363533323910570950000012094773930511797162_" gradientUnits="userSpaceOnUse" x1="1504.0027" y1="2618.1611" x2="1080.4323" y2="3860.6353">
					<stop  offset="0" style="stop-color:#FFC444"/>
					<stop  offset="0.5135" style="stop-color:#F9984D"/>
					<stop  offset="0.9964" style="stop-color:#F36F56"/>
				</linearGradient>
				<path style="fill:url(#SVGID_00000020363533323910570950000012094773930511797162_);" d="M1444.714,1485.765
					c94.6,28.595,215.624,139.909,278.916,200.937c145.974,140.748,420.016,615.632,260.35,785.219
					c-108.626,115.376-299.53,66.894-383.696-49.433c-61.905-85.561-24.414-163.431-11.386-317.469
					C1602.918,1939.267,1543.517,1649.534,1444.714,1485.765z"/>
				
					<linearGradient id="SVGID_00000119100001913796758060000015295648691916182712_" gradientUnits="userSpaceOnUse" x1="1283.9801" y1="2543.1531" x2="860.4103" y2="3785.6252">
					<stop  offset="0" style="stop-color:#FFC444"/>
					<stop  offset="0.9964" style="stop-color:#F36F56"/>
				</linearGradient>
				<path style="fill:url(#SVGID_00000119100001913796758060000015295648691916182712_);" d="M1524.421,1531.419
					c65.214,77.452,88.101,70.985,138.924,177.615c76.572,160.643,20.177,344.263,12.138,542.124
					c-8.819,217.047-0.145,621.038,108.945,829.804c1.901,3.635,2.832,4.397,2.75,9.839
					c-3.343,221.346-1049.158,66.282-1047.499-14.554c8.231-401.425,269.699-1280.524,204.933-1571.283
					c29.401-0.531,87.568-31.232,111.238-37.853c101.566-28.409,193.276-33.199,289.315-20.126
					c35.133,4.782,52.815,12.865,78.456,22.719C1465.275,1485.709,1492.14,1509.479,1524.421,1531.419z"/>
				<g>
					
						<linearGradient id="SVGID_00000152982876897635552760000000427281778953157522_" gradientUnits="userSpaceOnUse" x1="1259.9067" y1="1206.3922" x2="1070.326" y2="1912.0543">
						<stop  offset="0" style="stop-color:#893976"/>
						<stop  offset="1" style="stop-color:#311944"/>
					</linearGradient>
					<path style="fill:url(#SVGID_00000152982876897635552760000000427281778953157522_);" d="M1152.219,1225.504
						c1.375,67.382-20.736,164.49-29.452,224.918c-8.716,60.428,114.795,62.976,155.163,34.953
						c37.07-25.733,9.164-95.51-26.6-132.133C1215.563,1316.621,1188.74,1262.99,1152.219,1225.504z"/>
					<g>
						
							<linearGradient id="SVGID_00000174573700174479551130000009141709113817062016_" gradientUnits="userSpaceOnUse" x1="1184.6956" y1="1272.0771" x2="1300.5502" y2="745.4645">
							<stop  offset="0.0036" style="stop-color:#26264F"/>
							<stop  offset="1" style="stop-color:#444B8C"/>
						</linearGradient>
						<path style="fill:url(#SVGID_00000174573700174479551130000009141709113817062016_);" d="M1338.003,1204.418
							c56.93-50.253,67.373-228.533,9.68-263.439c-27.978-16.927-76.765,70.995-108.506,87.959
							c-42.624,22.782-158.303,48.123-181.225,93.809c-17.287,34.453,17.437,105.872,31.38,131.409
							c15.774,28.891,17.636,19.014,36.574,39.517c26.263,28.43,61.251,61.712,87.925,93.6c5.776-24.24,4.25-24.226,14.44-55.545
							c3.917-12.045,35.35-62.946,50.628-82.585C1288.606,1236.664,1331.03,1210.573,1338.003,1204.418z"/>
						
							<linearGradient id="SVGID_00000109711143921008436620000008673837354415418249_" gradientUnits="userSpaceOnUse" x1="1184.3523" y1="1318.1622" x2="1772.881" y2="1136.9261">
							<stop  offset="0" style="stop-color:#893976"/>
							<stop  offset="1" style="stop-color:#311944"/>
						</linearGradient>
						<path style="fill:url(#SVGID_00000109711143921008436620000008673837354415418249_);" d="M1155.457,1343.057
							c43.792,40.505,65.193,89.779,144.617,75.013c71.11-13.221,83.032-190.767,18.361-243.145
							c-21.573-17.473-53.081-17.281-79.886-9.306c-15.83,4.71-32.368,15.256-48.191,21.315
							c-14.593,5.588-26.914-1.202-40.31,13.597c-16.761,18.516-5.385,65.745,4.22,88.572c-7.344-6.442-15.619-15.52-25.243-18.513
							c-6.786-2.111-18.576-13.374-24.977-3.617c-10.45,15.932,12.213,46.306,25.516,58.803
							C1135.653,1331.495,1148.014,1338.515,1155.457,1343.057z"/>
						
							<linearGradient id="SVGID_00000012453575584433747680000006090543365828803235_" gradientUnits="userSpaceOnUse" x1="1235.3887" y1="1283.2294" x2="1351.2437" y2="756.6148">
							<stop  offset="0.0036" style="stop-color:#26264F"/>
							<stop  offset="1" style="stop-color:#444B8C"/>
						</linearGradient>
						<path style="fill:url(#SVGID_00000012453575584433747680000006090543365828803235_);" d="M1144.922,1189.174
							c9.742,5.626-7.592,23.604-4.991,41.397c5.046,34.546,16.076,96.913,66.494,102.953c29.806,3.571,61.038-23.04,92.286-26.232
							c19.346-1.976,40.696-0.931,59.939,4.255c12.448,37.197,12.96,95.734-19.297,118.779
							c-34.741,24.818-57.511,11.911-94.403,1.272c-24.685-7.118-51.927-28.432-67.449-52.644
							c-16.172-25.228-28.04-51.726-44.083-78.273c-8.858-14.659-19.583-33.015-30.016-48.393
							c-2.833-4.177-7.158-10.862-9.206-16.399C1102.569,1227.839,1130.824,1181.03,1144.922,1189.174z"/>
						
							<linearGradient id="SVGID_00000018944248740165022970000000766285931694840205_" gradientUnits="userSpaceOnUse" x1="1328.868" y1="1224.9196" x2="1139.2877" y2="1930.5806">
							<stop  offset="0" style="stop-color:#893976"/>
							<stop  offset="1" style="stop-color:#311944"/>
						</linearGradient>
						<path style="fill:url(#SVGID_00000018944248740165022970000000766285931694840205_);" d="M1319.395,1337.001
							c-14.671,8.191-31.879,8.127-47.84,8.353c-0.776,0.011-4.22-1.348-2.895,1.555c4.98,10.916,26.578,14.679,37.542,11.52
							c7.786-2.243,20.949-11.74,19.54-20.256C1325.149,1334.579,1320.862,1337.757,1319.395,1337.001z"/>
					</g>
				</g>
				
					<linearGradient id="SVGID_00000107581757154987326270000010341308284041458099_" gradientUnits="userSpaceOnUse" x1="5335.8501" y1="3288.7063" x2="4740.2925" y2="1470.9594" gradientTransform="matrix(-0.9992 0.0409 0.0409 0.9992 6336.5527 -39.9982)">
					<stop  offset="0" style="stop-color:#FF9085"/>
					<stop  offset="1" style="stop-color:#FB6FBB"/>
				</linearGradient>
				<path style="opacity:0.3;fill:url(#SVGID_00000107581757154987326270000010341308284041458099_);" d="M1432.623,2811.313
					c28.077-31.703,72.717-82.11,75.365-152.489c6.81-180.947-273.082-251.409-262.066-398.656
					c8.562-114.457,179.899-101.559,277.397-304.716c16.74-34.881,77.986-167.451,33.568-317.583
					c-17.74-59.958-46.886-104.305-68.661-132.168c12.032,8.478,23.71,17.233,36.196,25.718
					c65.212,77.452,88.1,70.985,138.924,177.615c76.571,160.643,20.177,344.263,12.138,542.124
					c-8.819,217.047-0.146,621.037,108.944,829.804c1.902,3.635,3.177,5.994,2.751,9.839
					c-24.397,220.023-1049.157,66.282-1047.499-14.554c0.993-48.398,5.693-103.792,13.032-164.208
					C789.041,2922.05,1231.632,3038.269,1432.623,2811.313z"/>
				
					<linearGradient id="SVGID_00000130607721254644597710000002919790187898467487_" gradientUnits="userSpaceOnUse" x1="1597.9994" y1="2079.0625" x2="1252.084" y2="2876.7866">
					<stop  offset="0" style="stop-color:#FFC444"/>
					<stop  offset="0.5135" style="stop-color:#F9984D"/>
					<stop  offset="0.9964" style="stop-color:#F36F56"/>
				</linearGradient>
				<path style="fill:url(#SVGID_00000130607721254644597710000002919790187898467487_);" d="M1726.407,2116.269
					c57.215-2.865,17.696-37.461,35.021-32.428c10.85,3.152,276.306,264.141,192.654,401.834
					c-79.78,131.318-411.194,42.268-527.97,0.629c-64.903-23.143-257.646-94.823-374.714-281.259
					c-10.52-16.755-18.4-31.203-23.627-41.262c255.835-33.56,378.359-41.604,442.534-41.958
					C1511.475,2121.597,1553.004,2124.953,1726.407,2116.269z"/>
				
					<linearGradient id="SVGID_00000145019086072768124180000010417783305536078262_" gradientUnits="userSpaceOnUse" x1="927.0572" y1="2421.4753" x2="503.4886" y2="3663.9438">
					<stop  offset="0" style="stop-color:#FFC444"/>
					<stop  offset="0.9964" style="stop-color:#F36F56"/>
				</linearGradient>
				<path style="fill:url(#SVGID_00000145019086072768124180000010417783305536078262_);" d="M1629.716,2089.766
					c-7.217,57.635-36.985,235.544-187.228,381.333c-29.872,28.987-232.505,219.008-516.601,171.12
					c-221.998-37.421-419.693-207.476-465.391-419.879c-89.211-414.652,440.616-780.463,562.29-717.732
					c81.678,42.111,104.99,342.073-17.256,493.658c-26.569,32.945-75.966,78.666-68.312,136.073
					c7.349,55.122,63.154,89.92,94.762,109.044c149.094,90.209,475.726-142.62,562.137-161.728
					C1600.348,2081.462,1605.042,2075.555,1629.716,2089.766z"/>
				
					<linearGradient id="SVGID_00000136407354281515509980000010318853292835189669_" gradientUnits="userSpaceOnUse" x1="5208.8101" y1="2551.2102" x2="5237.7637" y2="1655.8726" gradientTransform="matrix(-0.9992 0.0409 0.0409 0.9992 6336.5527 -39.9982)">
					<stop  offset="0" style="stop-color:#FF9085"/>
					<stop  offset="1" style="stop-color:#FB6FBB"/>
				</linearGradient>
				<path style="opacity:0.3;fill:url(#SVGID_00000136407354281515509980000010318853292835189669_);" d="M837.078,1996.32
					c51.482-52.15,111.124-79.612,178.195-100.23c16.744-4.533,33.499-8.735,50.073-13.063
					c-13.707,42.619-33.342,82.411-59.816,115.239c-26.57,32.944-75.968,78.666-68.313,136.073
					c7.349,55.121,63.153,89.92,94.762,109.043c149.095,90.209,475.726-142.62,562.137-161.728c6.232-0.194,10.926-6.1,35.599,8.111
					c-1.808,14.45-5.039,36.466-11.227,63.635c-122.599-39.257-255.592,83.738-361.604,143.863
					c-136.25,77.066-305.784,126.898-438.632,25.102C718.69,2247.803,754.793,2081.9,837.078,1996.32z"/>
				
					<linearGradient id="SVGID_00000123417416737154897320000014488898097998829457_" gradientUnits="userSpaceOnUse" x1="5751.5635" y1="2972.0583" x2="5804.8857" y2="1323.1641" gradientTransform="matrix(-0.9992 0.0409 0.0409 0.9992 6336.5527 -39.9982)">
					<stop  offset="0" style="stop-color:#FF9085"/>
					<stop  offset="1" style="stop-color:#FB6FBB"/>
				</linearGradient>
				<path style="opacity:0.3;fill:url(#SVGID_00000123417416737154897320000014488898097998829457_);" d="M771.944,1591.89
					c23.244,78.147,26.049,157.297-20.531,232.787c-67.134,106.407-142.135,195.264-169.432,314.339
					c-24.458,101.086-9.663,200.566,19.406,299.461c8.438,26.334,21.491,49.147,37.516,69.638
					C550,2433.088,484.416,2333.524,460.496,2222.34C404.311,1961.199,593.655,1719.442,771.944,1591.89z"/>
				
					<linearGradient id="SVGID_00000004506298137256791840000004023027857266320052_" gradientUnits="userSpaceOnUse" x1="938.7415" y1="1962.1764" x2="973.8494" y2="2310.9121">
					<stop  offset="0" style="stop-color:#893976"/>
					<stop  offset="1" style="stop-color:#311944"/>
				</linearGradient>
				<path style="fill:url(#SVGID_00000004506298137256791840000004023027857266320052_);" d="M1051.399,2205.045
					c-7.089,16.944-42.109,34.328-59.105,32.359c-28.497-3.302-48.612-22.717-66.479-31.179
					c-15.961-7.559-51.595-17.817-53.732-30.493c-4.047-24.004,34.884-30.766,57.722-33.082
					c32.016-3.246,66.167,6.094,97.969,21.132C1035.677,2177.669,1044.547,2191.288,1051.399,2205.045z"/>
				
					<linearGradient id="SVGID_00000158740262897639698920000003342196899016766894_" gradientUnits="userSpaceOnUse" x1="1588.2744" y1="1896.7882" x2="1623.3821" y2="2245.522">
					<stop  offset="0" style="stop-color:#893976"/>
					<stop  offset="1" style="stop-color:#311944"/>
				</linearGradient>
				<path style="fill:url(#SVGID_00000158740262897639698920000003342196899016766894_);" d="M1680.949,2118.409
					c-111.81,15.704-137.657,7.99-140.759-1.865c-3.958-12.577,26.175-38.017,58.354-42.393
					C1631.193,2069.712,1664.318,2087.179,1680.949,2118.409z"/>
			</g>
		</g>
	</g>
</g>
</svg>
